<svg xmlns="http://www.w3.org/2000/svg" xmlns:xlink="http://www.w3.org/1999/xlink" version="1.1" viewBox="0 0 1000 1000"><defs><linearGradient id="linearGradient-1" x1="80.814%" x2="43.696%" y1="15.801%" y2="97.438%"><stop offset="0%" stop-color="#0052CC"/><stop offset="92.3%" stop-color="#2684FF"/></linearGradient></defs><g id="atlassian" fill="none" fill-rule="evenodd" stroke="none" stroke-width="1"><g id="Atlassian-vertical-blue-rgb" fill-rule="nonzero" transform="translate(171.000000, 171.000000)"><path id="Path" fill="url(#linearGradient-1)" d="M196.327984,303.035568 C186.515005,292.552787 171.224765,293.146967 164.555541,306.485415 L3.63350273,628.336694 C0.6501954,634.300235 0.967948485,641.383379 4.47325209,647.055837 C7.97855569,652.728296 14.1713959,656.180922 20.8395246,656.180344 L244.946339,656.180344 C252.281934,656.350399 259.02832,652.180316 262.155962,645.542716 C310.479027,545.630393 281.202142,393.71829 196.327984,303.035568 Z"/><path id="Path" fill="#2681FF" d="M314.400617,10.3063279 C224.394902,152.909607 230.333104,310.846339 289.617896,429.419525 L397.679492,645.542716 C400.93806,652.059903 407.599088,656.176692 414.885514,656.176743 L638.988727,656.176743 C645.656855,656.177321 651.849696,652.724695 655.354999,647.052236 C658.860303,641.379778 659.178056,634.296634 656.194749,628.333093 C656.194749,628.333093 354.70765,25.2724699 347.123749,10.1838907 C340.342891,-3.32380874 323.118863,-3.50746448 314.400617,10.3063279 Z"/></g></g></svg>